<svg xmlns="http://www.w3.org/2000/svg" viewBox="0 0 1600 900" role="img" aria-label="SILKROAD PRIVATE SERVER">
  <defs>
    <linearGradient id="g" x1="0" x2="1" y1="0" y2="1"><stop stop-color="#2a140b"/><stop offset="1" stop-color="#9a6120"/></linearGradient>
    <radialGradient id="r" cx="70%" cy="20%" r="65%"><stop stop-color="#f5c65b" stop-opacity="0.42"/><stop offset="1" stop-color="#000" stop-opacity="0"/></radialGradient>
    <filter id="blur"><feGaussianBlur stdDeviation="18"/></filter>
  </defs>
  <rect width="1600" height="900" fill="url(#g)"/>
  <rect width="1600" height="900" fill="url(#r)"/>
  <circle cx="1240" cy="170" r="92" fill="#ffd66b" opacity="0.70" filter="url(#blur)"/>
  <path d="M0 650 C240 500 380 555 560 430 C740 305 925 470 1090 350 C1260 230 1400 360 1600 250 L1600 900 L0 900 Z" fill="#090706" opacity="0.74"/>
  <path d="M0 735 C240 620 420 670 640 560 C840 460 1040 590 1240 470 C1390 380 1500 430 1600 390 L1600 900 L0 900 Z" fill="#120b08" opacity="0.88"/>
  <path d="M145 712 h1310" stroke="#e8b547" stroke-opacity="0.35" stroke-width="2"/>
  <text x="800" y="392" text-anchor="middle" font-family="Georgia,serif" font-size="68" font-weight="700" fill="#f2e5c9" letter-spacing="6">SILKROAD PRIVATE SERVER</text>
  <text x="800" y="462" text-anchor="middle" font-family="Arial,sans-serif" font-size="28" fill="#f7d989" letter-spacing="2">Replace /public/theme/hero.jpg with an in-game screenshot</text>
</svg>